:SAMPLES-PER-SECOND 30
:FULLY-SPECIFIED
:DEGREES
232
root  65.373 35.3407 -31.289 37.0476 11.9945 -3.27629
RightUpLeg  -75.237 -18.3738 10.4401
RightLeg  36.5283 3.01536 2.13377
RightFoot  3.07235 -0.282871 2.40247
RightToes  0.00048216 0.542163 -0.142577
Spine  73.8751 -4.48084 4.52875
Spine1  5.41374 0.979256 -6.85244
HEad  -44.4273 -2.26196 1.12476
LeftShoulder1  2.77313 -24.9485 -1.45781
LeftArm  -93.2566 -56.7485 35.4884
LeftForeArm  -2.84145 -14.1279 2.65031
LeftHand  -0.25398 0.0180481 5.50724
RightShoulder  0.333068 6.65289 -5.83127
RightArm  -92.6715 72.1474 -29.2076
RightForeArm  -12.1333 5.729 0.469664
RightHand  -1.15162 11.2845 -8.51428
LeftUpLeg  -78.9468 23.4674 -22.2876
LeftLeg  47.4233 2.89896 3.81195
LeftFoot  -11.106 0.0527076 6.89485
LeftToes  1.06244e-005 4.65854e-005 -8.18505e-006
233
root  65.3555 35.3216 -31.4059 36.414 12.1148 -3.40825
RightUpLeg  -74.7746 -18.4314 10.4426
RightLeg  36.519 2.95934 2.08857
RightFoot  3.41763 -0.261767 2.20051
RightToes  0.00048216 0.542163 -0.142577
Spine  74.1262 -4.7691 5.31739
Spine1  4.94384 1.78537 -8.35015
HEad  -43.8828 -3.23545 1.87547
LeftShoulder1  2.23372 -26.5003 1.19105
LeftArm  -94.6745 -57.674 32.2861
LeftForeArm  -0.65075 -14.7519 2.79198
LeftHand  -0.25398 0.0180481 5.50724
RightShoulder  0.510751 6.21064 -3.60144
RightArm  -90.5353 71.7112 -29.2658
RightForeArm  -13.3574 4.98647 0.896929
RightHand  -1.48871 10.7337 -11.1889
LeftUpLeg  -78.6855 23.7023 -22.1051
LeftLeg  47.6002 2.80243 3.72193
LeftFoot  -10.9992 0.044858 7.15639
LeftToes  1.06244e-005 4.65854e-005 -8.18505e-006
234
root  65.3636 35.3595 -31.5647 35.6744 12.1658 -3.4738
RightUpLeg  -73.9887 -18.5812 10.336
RightLeg  35.9907 3.03655 2.10729
RightFoot  3.87584 -0.259533 2.14077
RightToes  0.00048216 0.542163 -0.142577
Spine  74.1509 -4.7275 5.23205
Spine1  4.98152 1.74086 -8.15345
HEad  -43.4257 -2.73733 1.26173
LeftShoulder1  2.23464 -26.2098 1.0694
LeftArm  -97.2958 -58.7368 31.2023
LeftForeArm  4.72112 -16.2948 1.75246
LeftHand  -0.25398 0.0180481 5.50724
RightShoulder  0.407224 6.37122 -4.84339
RightArm  -89.4337 71.7441 -27.3332
RightForeArm  -14.7053 4.54499 0.587114
RightHand  -1.65021 9.38925 -13.3842
LeftUpLeg  -78.1706 24.0728 -22.1956
LeftLeg  47.3378 2.63595 3.49767
LeftFoot  -10.7551 0.0257778 7.59993
LeftToes  1.06244e-005 4.65854e-005 -8.18505e-006
235
root  65.4071 35.4714 -31.7738 34.8607 12.2085 -3.25905
RightUpLeg  -72.862 -18.9981 9.98222
RightLeg  34.8677 3.13396 2.09094
RightFoot  4.6079 -0.266908 2.12989
RightToes  0.00048216 0.542163 -0.142577
Spine  73.8496 -4.52399 4.58388
Spine1  5.41376 1.05686 -6.83526
HEad  -42.9727 -1.59845 0.0734061
LeftShoulder1  2.67702 -24.905 -1.05897
LeftArm  -100.032 -60.0412 31.5147
LeftForeArm  12.2947 -18.1993 0.0183732
LeftHand  -0.25398 0.0180481 5.50724
RightShoulder  0.177119 7.07525 -7.70912
RightArm  -88.2708 71.9879 -24.8683
RightForeArm  -15.6815 3.88479 0.136951
RightHand  -1.5634 7.48106 -14.4505
LeftUpLeg  -77.1333 24.2587 -22.4612
LeftLeg  46.4642 2.50633 3.25312
LeftFoot  -10.2103 -0.0182226 8.06207
LeftToes  1.06244e-005 4.65854e-005 -8.18505e-006
236
root  65.4855 35.6496 -32.0282 33.9221 12.2199 -2.66556
RightUpLeg  -71.2814 -19.6194 9.12686
RightLeg  33.2 3.26206 2.04815
RightFoot  5.78456 -0.302454 2.26957
RightToes  0.00048216 0.542163 -0.142577
Spine  73.2527 -4.57352 4.52114
Spine1  5.60736 0.895946 -6.70947
HEad  -42.1594 -2.02307 0.0831011
LeftShoulder1  2.78191 -25.3241 -1.32024
LeftArm  -100.103 -61.5944 28.8159
LeftForeArm  18.8063 -19.4458 -0.972498
LeftHand  -0.25398 0.0180481 5.50724
RightShoulder  0.258626 7.3031 -6.86478
RightArm  -85.4147 72.3136 -23.9861
RightForeArm  -14.8282 2.36101 0.508147
RightHand  -1.32577 5.7079 -14.1789
LeftUpLeg  -75.4166 24.1957 -22.8549
LeftLeg  44.9796 2.46999 3.06097
LeftFoot  -9.4062 -0.0868862 8.48324
LeftToes  1.06244e-005 4.65854e-005 -8.18505e-006
